REM MD5 cd04303091f863a45d6aad1c70f7f9c3
FILE "Railroad Tycoon II (USA).bin" BINARY
  TRACK 01 MODE2/2352
    INDEX 01 00:00:00
  TRACK 02 AUDIO
    INDEX 00 39:21:11
    INDEX 01 39:23:11
  TRACK 03 AUDIO
    INDEX 00 41:38:66
    INDEX 01 41:40:66
REM LEADOUT 44:41:70
